<?xml version="1.0" encoding="utf-8"?>
<!-- Generator: Adobe Illustrator 24.0.3, SVG Export Plug-In . SVG Version: 6.00 Build 0)  -->
<svg version="1.1" id="Calque_1" xmlns="http://www.w3.org/2000/svg" xmlns:xlink="http://www.w3.org/1999/xlink" x="0px" y="0px"
	 viewBox="0 0 100 100" style="enable-background:new 0 0 100 100;" xml:space="preserve">
<style type="text/css">
	.st0{fill:#FFF6C4;}
	.st1{fill:none;stroke:#505050;stroke-width:2;stroke-linecap:round;stroke-linejoin:round;stroke-miterlimit:10;}
</style>
<g>
	<path class="st0" d="M84,34.49C84,16.75,69.62,2.36,51.87,2.36c-17.74,0-32.13,14.38-32.13,32.13c0,13.36,8.16,24.82,19.77,29.66
		h-0.09l12.9,30.92l11.99-30.92h-0.09C75.84,59.31,84,47.86,84,34.49z M51.87,59.82c-13.99,0-25.33-11.34-25.33-25.33
		c0-13.99,11.34-25.33,25.33-25.33S77.21,20.5,77.21,34.49C77.21,48.48,65.86,59.82,51.87,59.82z"/>
	<path class="st1" d="M80.47,36.61c0-17.74-14.38-32.13-32.13-32.13c-17.74,0-32.13,14.38-32.13,32.13
		c0,13.36,8.16,24.82,19.77,29.66h-0.09L48.8,97.2l11.99-30.92H60.7C72.31,61.43,80.47,49.97,80.47,36.61z M48.34,61.94
		c-13.99,0-25.33-11.34-25.33-25.33c0-13.99,11.34-25.33,25.33-25.33c13.99,0,25.33,11.34,25.33,25.33
		C73.68,50.6,62.33,61.94,48.34,61.94z"/>
</g>
</svg>
