<?xml version="1.0" encoding="utf-8"?>
<!-- Generator: Adobe Illustrator 24.0.3, SVG Export Plug-In . SVG Version: 6.00 Build 0)  -->
<svg version="1.1" id="Calque_1" xmlns="http://www.w3.org/2000/svg" xmlns:xlink="http://www.w3.org/1999/xlink" x="0px" y="0px"
	 viewBox="0 0 100 100" style="enable-background:new 0 0 100 100;" xml:space="preserve">
<style type="text/css">
	.st0{fill:#9CD8D6;}
	.st1{fill:none;stroke:#505050;stroke-width:2;stroke-miterlimit:10;}
	.st2{fill:#505050;}
</style>
<g>
	<path class="st0" d="M88,37.92C88,17.21,70.49,0.59,49.47,2.05C31.39,3.31,16.92,18.21,16.13,36.31
		c-0.79,18.25,12.03,33.65,29.16,36.91l5.36,20.46c0.41,1.29,2.25,1.26,2.61-0.06l4.51-20.22C74.9,70.67,88,55.82,88,37.92z"/>
	<g>
		<g>
			
				<ellipse transform="matrix(0.7071 -0.7071 0.7071 0.7071 -14.667 45.4046)" class="st1" cx="47.47" cy="40.41" rx="13.25" ry="13.25"/>
			<circle class="st2" cx="47.47" cy="40.41" r="5.68"/>
		</g>
		<path class="st1" d="M83.43,40.66c0-20.71-17.51-37.33-38.53-35.86C26.82,6.06,12.35,20.95,11.56,39.05
			c-0.79,18.25,12.03,33.65,29.16,36.91l5.36,20.46c0.41,1.29,2.25,1.26,2.61-0.06l4.51-20.22C70.33,73.41,83.43,58.57,83.43,40.66z
			"/>
	</g>
</g>
</svg>
